<mxfile host="app.diagrams.net" modified="2021-03-10T06:34:12.587Z" agent="5.0 (X11; Linux x86_64) AppleWebKit/537.36 (KHTML, like Gecko) Chrome/88.0.4324.182 Safari/537.36" etag="A7cxuGiT5QWZZHCzfipm" version="14.4.6" type="github">
  <diagram id="C5RBs43oDa-KdzZeNtuy" name="Page-1">
    <mxGraphModel dx="1822" dy="1964" grid="1" gridSize="10" guides="1" tooltips="1" connect="1" arrows="1" fold="1" page="1" pageScale="1" pageWidth="827" pageHeight="1169" math="0" shadow="0">
      <root>
        <mxCell id="WIyWlLk6GJQsqaUBKTNV-0" />
        <mxCell id="WIyWlLk6GJQsqaUBKTNV-1" parent="WIyWlLk6GJQsqaUBKTNV-0" />
        <mxCell id="EivdhIYTFzwHok7C5iKz-7" value="" style="edgeStyle=entityRelationEdgeStyle;fontSize=12;html=1;endArrow=ERoneToMany;exitX=1;exitY=0.25;exitDx=0;exitDy=0;entryX=0;entryY=0.25;entryDx=0;entryDy=0;" parent="WIyWlLk6GJQsqaUBKTNV-1" source="EivdhIYTFzwHok7C5iKz-46" target="EivdhIYTFzwHok7C5iKz-9" edge="1">
          <mxGeometry width="100" height="100" relative="1" as="geometry">
            <mxPoint x="190" y="-257.5" as="sourcePoint" />
            <mxPoint x="270" y="-260" as="targetPoint" />
          </mxGeometry>
        </mxCell>
        <mxCell id="EivdhIYTFzwHok7C5iKz-8" value="Profile" style="swimlane;childLayout=stackLayout;horizontal=1;startSize=30;horizontalStack=0;rounded=1;fontSize=14;fontStyle=0;strokeWidth=2;resizeParent=0;resizeLast=1;shadow=0;dashed=0;align=center;" parent="WIyWlLk6GJQsqaUBKTNV-1" vertex="1">
          <mxGeometry x="224" y="-310" width="160" height="120" as="geometry" />
        </mxCell>
        <mxCell id="EivdhIYTFzwHok7C5iKz-9" value="+ id&#xa;+ attention span&#xa;" style="align=left;strokeColor=none;fillColor=none;spacingLeft=4;fontSize=12;verticalAlign=top;resizable=0;rotatable=0;part=1;" parent="EivdhIYTFzwHok7C5iKz-8" vertex="1">
          <mxGeometry y="30" width="160" height="90" as="geometry" />
        </mxCell>
        <mxCell id="EivdhIYTFzwHok7C5iKz-10" value="Course Performance" style="swimlane;childLayout=stackLayout;horizontal=1;startSize=30;horizontalStack=0;rounded=1;fontSize=14;fontStyle=0;strokeWidth=2;resizeParent=0;resizeLast=1;shadow=0;dashed=0;align=center;" parent="WIyWlLk6GJQsqaUBKTNV-1" vertex="1">
          <mxGeometry x="420" y="-310" width="220" height="120" as="geometry" />
        </mxCell>
        <mxCell id="EivdhIYTFzwHok7C5iKz-11" value="+ proficiency" style="align=left;strokeColor=none;fillColor=none;spacingLeft=4;fontSize=12;verticalAlign=top;resizable=0;rotatable=0;part=1;" parent="EivdhIYTFzwHok7C5iKz-10" vertex="1">
          <mxGeometry y="30" width="220" height="90" as="geometry" />
        </mxCell>
        <mxCell id="EivdhIYTFzwHok7C5iKz-12" value="" style="edgeStyle=entityRelationEdgeStyle;fontSize=12;html=1;endArrow=ERoneToMany;entryX=0;entryY=0.25;entryDx=0;entryDy=0;exitX=1;exitY=0.25;exitDx=0;exitDy=0;" parent="WIyWlLk6GJQsqaUBKTNV-1" source="EivdhIYTFzwHok7C5iKz-9" target="EivdhIYTFzwHok7C5iKz-11" edge="1">
          <mxGeometry width="100" height="100" relative="1" as="geometry">
            <mxPoint x="400" y="-270" as="sourcePoint" />
            <mxPoint x="444" y="-270.0000000000001" as="targetPoint" />
          </mxGeometry>
        </mxCell>
        <mxCell id="EivdhIYTFzwHok7C5iKz-20" value="Lesson Performance" style="swimlane;childLayout=stackLayout;horizontal=1;startSize=30;horizontalStack=0;rounded=1;fontSize=14;fontStyle=0;strokeWidth=2;resizeParent=0;resizeLast=1;shadow=0;dashed=0;align=center;" parent="WIyWlLk6GJQsqaUBKTNV-1" vertex="1">
          <mxGeometry x="740" y="-370" width="220" height="120" as="geometry" />
        </mxCell>
        <mxCell id="EivdhIYTFzwHok7C5iKz-21" value="+ responseTime (avg. per question)&#xa;+ numAttempts&#xa;+ accuracy&#xa;+ tag (1-hot encoded)" style="align=left;strokeColor=none;fillColor=none;spacingLeft=4;fontSize=12;verticalAlign=top;resizable=0;rotatable=0;part=1;" parent="EivdhIYTFzwHok7C5iKz-20" vertex="1">
          <mxGeometry y="30" width="220" height="90" as="geometry" />
        </mxCell>
        <mxCell id="EivdhIYTFzwHok7C5iKz-24" value="Course" style="swimlane;childLayout=stackLayout;horizontal=1;startSize=30;horizontalStack=0;rounded=1;fontSize=14;fontStyle=0;strokeWidth=2;resizeParent=0;resizeLast=1;shadow=0;dashed=0;align=center;" parent="WIyWlLk6GJQsqaUBKTNV-1" vertex="1">
          <mxGeometry x="10" y="-110" width="160" height="120" as="geometry" />
        </mxCell>
        <mxCell id="EivdhIYTFzwHok7C5iKz-25" value="+ name" style="align=left;strokeColor=none;fillColor=none;spacingLeft=4;fontSize=12;verticalAlign=top;resizable=0;rotatable=0;part=1;" parent="EivdhIYTFzwHok7C5iKz-24" vertex="1">
          <mxGeometry y="30" width="160" height="90" as="geometry" />
        </mxCell>
        <mxCell id="EivdhIYTFzwHok7C5iKz-26" value="Lesson" style="swimlane;childLayout=stackLayout;horizontal=1;startSize=30;horizontalStack=0;rounded=1;fontSize=14;fontStyle=0;strokeWidth=2;resizeParent=0;resizeLast=1;shadow=0;dashed=0;align=center;" parent="WIyWlLk6GJQsqaUBKTNV-1" vertex="1">
          <mxGeometry x="230" y="-110" width="160" height="120" as="geometry" />
        </mxCell>
        <mxCell id="EivdhIYTFzwHok7C5iKz-27" value="+ difficultyRating&#xa;+ priorAttempts&#xa;+ points" style="align=left;strokeColor=none;fillColor=none;spacingLeft=4;fontSize=12;verticalAlign=top;resizable=0;rotatable=0;part=1;" parent="EivdhIYTFzwHok7C5iKz-26" vertex="1">
          <mxGeometry y="30" width="160" height="90" as="geometry" />
        </mxCell>
        <mxCell id="EivdhIYTFzwHok7C5iKz-28" value="" style="edgeStyle=entityRelationEdgeStyle;fontSize=12;html=1;endArrow=ERoneToMany;entryX=0;entryY=0.25;entryDx=0;entryDy=0;exitX=1;exitY=0.25;exitDx=0;exitDy=0;" parent="WIyWlLk6GJQsqaUBKTNV-1" source="EivdhIYTFzwHok7C5iKz-25" target="EivdhIYTFzwHok7C5iKz-27" edge="1">
          <mxGeometry width="100" height="100" relative="1" as="geometry">
            <mxPoint x="160" y="-60" as="sourcePoint" />
            <mxPoint x="226" y="-60" as="targetPoint" />
          </mxGeometry>
        </mxCell>
        <mxCell id="EivdhIYTFzwHok7C5iKz-22" value="" style="edgeStyle=entityRelationEdgeStyle;fontSize=12;html=1;endArrow=ERoneToMany;exitX=1;exitY=0.2;exitDx=0;exitDy=0;exitPerimeter=0;entryX=-0.007;entryY=0.185;entryDx=0;entryDy=0;entryPerimeter=0;" parent="WIyWlLk6GJQsqaUBKTNV-1" source="EivdhIYTFzwHok7C5iKz-11" target="EivdhIYTFzwHok7C5iKz-21" edge="1">
          <mxGeometry width="100" height="100" relative="1" as="geometry">
            <mxPoint x="690" y="-247.5" as="sourcePoint" />
            <mxPoint x="756" y="-247.5" as="targetPoint" />
          </mxGeometry>
        </mxCell>
        <mxCell id="EivdhIYTFzwHok7C5iKz-30" value="Course Statistic" style="swimlane;childLayout=stackLayout;horizontal=1;startSize=30;horizontalStack=0;rounded=1;fontSize=14;fontStyle=0;strokeWidth=2;resizeParent=0;resizeLast=1;shadow=0;dashed=0;align=center;" parent="WIyWlLk6GJQsqaUBKTNV-1" vertex="1">
          <mxGeometry x="-60" y="70" width="300" height="120" as="geometry" />
        </mxCell>
        <mxCell id="EivdhIYTFzwHok7C5iKz-31" value="+ totalAttempts&#xa;+ meanAccuracy&#xa;+ meanEngagement (function of attention span)" style="align=left;strokeColor=none;fillColor=none;spacingLeft=4;fontSize=12;verticalAlign=top;resizable=0;rotatable=0;part=1;" parent="EivdhIYTFzwHok7C5iKz-30" vertex="1">
          <mxGeometry y="30" width="300" height="90" as="geometry" />
        </mxCell>
        <mxCell id="EivdhIYTFzwHok7C5iKz-32" value="" style="fontSize=12;html=1;endArrow=ERoneToMany;exitX=0.5;exitY=1;exitDx=0;exitDy=0;entryX=0.5;entryY=0;entryDx=0;entryDy=0;edgeStyle=orthogonalEdgeStyle;curved=1;" parent="WIyWlLk6GJQsqaUBKTNV-1" source="EivdhIYTFzwHok7C5iKz-25" target="EivdhIYTFzwHok7C5iKz-30" edge="1">
          <mxGeometry width="100" height="100" relative="1" as="geometry">
            <mxPoint x="104" y="40" as="sourcePoint" />
            <mxPoint x="90" y="60" as="targetPoint" />
          </mxGeometry>
        </mxCell>
        <mxCell id="EivdhIYTFzwHok7C5iKz-34" value="Day Performance" style="swimlane;childLayout=stackLayout;horizontal=1;startSize=30;horizontalStack=0;rounded=1;fontSize=14;fontStyle=0;strokeWidth=2;resizeParent=0;resizeLast=1;shadow=0;dashed=0;align=center;" parent="WIyWlLk6GJQsqaUBKTNV-1" vertex="1">
          <mxGeometry x="740" y="-230" width="220" height="120" as="geometry" />
        </mxCell>
        <mxCell id="EivdhIYTFzwHok7C5iKz-35" value="+ timeSpent&#xa;+ proficiencyAchieved&#xa;+ engagementValue" style="align=left;strokeColor=none;fillColor=none;spacingLeft=4;fontSize=12;verticalAlign=top;resizable=0;rotatable=0;part=1;" parent="EivdhIYTFzwHok7C5iKz-34" vertex="1">
          <mxGeometry y="30" width="220" height="90" as="geometry" />
        </mxCell>
        <mxCell id="EivdhIYTFzwHok7C5iKz-36" value="" style="edgeStyle=entityRelationEdgeStyle;fontSize=12;html=1;endArrow=ERoneToMany;exitX=1.002;exitY=0.413;exitDx=0;exitDy=0;exitPerimeter=0;entryX=0;entryY=0.5;entryDx=0;entryDy=0;" parent="WIyWlLk6GJQsqaUBKTNV-1" source="EivdhIYTFzwHok7C5iKz-11" target="EivdhIYTFzwHok7C5iKz-35" edge="1">
          <mxGeometry width="100" height="100" relative="1" as="geometry">
            <mxPoint x="650" y="-252.00000000000023" as="sourcePoint" />
            <mxPoint x="748.4600000000003" y="-313.35000000000014" as="targetPoint" />
          </mxGeometry>
        </mxCell>
        <mxCell id="EivdhIYTFzwHok7C5iKz-45" value="Profile" style="swimlane;childLayout=stackLayout;horizontal=1;startSize=30;horizontalStack=0;rounded=1;fontSize=14;fontStyle=0;strokeWidth=2;resizeParent=0;resizeLast=1;shadow=0;dashed=0;align=center;" parent="WIyWlLk6GJQsqaUBKTNV-1" vertex="1">
          <mxGeometry x="10" y="-310" width="160" height="120" as="geometry" />
        </mxCell>
        <mxCell id="EivdhIYTFzwHok7C5iKz-46" value="+ id&#xa;+ name&#xa;+ email&#xa;+ birthday&#xa;" style="align=left;strokeColor=none;fillColor=none;spacingLeft=4;fontSize=12;verticalAlign=top;resizable=0;rotatable=0;part=1;" parent="EivdhIYTFzwHok7C5iKz-45" vertex="1">
          <mxGeometry y="30" width="160" height="90" as="geometry" />
        </mxCell>
        <mxCell id="pqekmH9viEw_2QGKgCvP-0" value="" style="edgeStyle=entityRelationEdgeStyle;fontSize=12;html=1;endArrow=ERoneToMany;exitX=1;exitY=0.25;exitDx=0;exitDy=0;entryX=0;entryY=0.25;entryDx=0;entryDy=0;" edge="1" parent="WIyWlLk6GJQsqaUBKTNV-1" source="pqekmH9viEw_2QGKgCvP-11" target="pqekmH9viEw_2QGKgCvP-2">
          <mxGeometry width="100" height="100" relative="1" as="geometry">
            <mxPoint x="240" y="522.5" as="sourcePoint" />
            <mxPoint x="320" y="520" as="targetPoint" />
          </mxGeometry>
        </mxCell>
        <mxCell id="pqekmH9viEw_2QGKgCvP-1" value="Children" style="swimlane;childLayout=stackLayout;horizontal=1;startSize=30;horizontalStack=0;rounded=1;fontSize=14;fontStyle=0;strokeWidth=2;resizeParent=0;resizeLast=1;shadow=0;dashed=0;align=center;" vertex="1" parent="WIyWlLk6GJQsqaUBKTNV-1">
          <mxGeometry x="274" y="470" width="160" height="160" as="geometry" />
        </mxCell>
        <mxCell id="pqekmH9viEw_2QGKgCvP-2" value="_id&#xa;name&#xa;avatar&#xa;birthday&#xa;learning_style&#xa;attention_span&#xa;favourite_object&#xa;statistics (list)" style="align=left;strokeColor=none;fillColor=none;spacingLeft=4;fontSize=12;verticalAlign=top;resizable=0;rotatable=0;part=1;" vertex="1" parent="pqekmH9viEw_2QGKgCvP-1">
          <mxGeometry y="30" width="160" height="130" as="geometry" />
        </mxCell>
        <mxCell id="pqekmH9viEw_2QGKgCvP-5" value="" style="edgeStyle=entityRelationEdgeStyle;fontSize=12;html=1;endArrow=ERoneToMany;entryX=0;entryY=0.25;entryDx=0;entryDy=0;exitX=1;exitY=0.25;exitDx=0;exitDy=0;" edge="1" parent="WIyWlLk6GJQsqaUBKTNV-1" source="pqekmH9viEw_2QGKgCvP-2" target="pqekmH9viEw_2QGKgCvP-7">
          <mxGeometry width="100" height="100" relative="1" as="geometry">
            <mxPoint x="450" y="510" as="sourcePoint" />
            <mxPoint x="510" y="532.5" as="targetPoint" />
          </mxGeometry>
        </mxCell>
        <mxCell id="pqekmH9viEw_2QGKgCvP-6" value="Performance Statistics" style="swimlane;childLayout=stackLayout;horizontal=1;startSize=30;horizontalStack=0;rounded=1;fontSize=14;fontStyle=0;strokeWidth=2;resizeParent=0;resizeLast=1;shadow=0;dashed=0;align=center;" vertex="1" parent="WIyWlLk6GJQsqaUBKTNV-1">
          <mxGeometry x="547" y="460" width="280" height="180" as="geometry" />
        </mxCell>
        <mxCell id="pqekmH9viEw_2QGKgCvP-7" value="_id&#xa;course_id&#xa;lesson_id&#xa;num_incorrect&#xa;time_taken&#xa;difficulty&#xa;time_on_completion (AEST Unix timestamp)&#xa;completed (bool)&#xa;parental_engagement_rating (int)" style="align=left;strokeColor=none;fillColor=none;spacingLeft=4;fontSize=12;verticalAlign=top;resizable=0;rotatable=0;part=1;" vertex="1" parent="pqekmH9viEw_2QGKgCvP-6">
          <mxGeometry y="30" width="280" height="150" as="geometry" />
        </mxCell>
        <mxCell id="pqekmH9viEw_2QGKgCvP-10" value="Profile" style="swimlane;childLayout=stackLayout;horizontal=1;startSize=30;horizontalStack=0;rounded=1;fontSize=14;fontStyle=0;strokeWidth=2;resizeParent=0;resizeLast=1;shadow=0;dashed=0;align=center;" vertex="1" parent="WIyWlLk6GJQsqaUBKTNV-1">
          <mxGeometry x="20" y="480" width="160" height="120" as="geometry" />
        </mxCell>
        <mxCell id="pqekmH9viEw_2QGKgCvP-11" value="_id&#xa;name&#xa;email&#xa;password&#xa;children (list)" style="align=left;strokeColor=none;fillColor=none;spacingLeft=4;fontSize=12;verticalAlign=top;resizable=0;rotatable=0;part=1;" vertex="1" parent="pqekmH9viEw_2QGKgCvP-10">
          <mxGeometry y="30" width="160" height="90" as="geometry" />
        </mxCell>
      </root>
    </mxGraphModel>
  </diagram>
</mxfile>
